# xmcd
#
# Track frame offsets: 
#        150
#        13237
#        29005
#        45005
#        61390
#        74487
#        86460
#        100505
#        112365
#        127730
#        141520
#        157495
#        171545
#        186152
#        199120
#        212432
#        225425
#        239890
#        254322
#        268095
#        281822
#        295442
#        309345
#
# Disc length: 4305 seconds
#
# Revision: 1
# Processed by: cddbd v1.5.2PL0 Copyright (c) Steve Scherf et al.
# Submitted via: ExactAudioCopy v1.0b1
#
DISCID=6610cf17
DTITLE=Various Artist - Memphis Blues, 1928-1935
DYEAR=1990
DGENRE=Blues
TTITLE0=Robert Wilkins - Rolling Stone - Part 1
TTITLE1=Robert Wilkins - Rolling Stone - Part 2
TTITLE2=Robert Wilkins - Jail House Blues
TTITLE3=Robert Wilkins - I Do Blues
TTITLE4=Robert Wilkins - That's No Way to Get Along
TTITLE5=Robert Wilkins - Alabama Blues
TTITLE6=Robert Wilkins - Long Train Blues
TTITLE7=Robert Wilkins - Falling Down Blues
TTITLE8=Robert Wilkins - Nashville Stonewall Blues
TTITLE9=Robert Wilkins - Police Sergeant Blues
TTITLE10=Robert Wilkins - Get Away Blues
TTITLE11=Robert Wilkins - I'll Go with Her Blues
TTITLE12=Robert Wilkins - Dirty Deal Blues
TTITLE13=Robert Wilkins - Black Rat Blues
TTITLE14=Robert Wilkins - New Stock Yard Blues
TTITLE15=Robert Wilkins - Old Jim Canan's
TTITLE16=Robert Wilkins - Losin' Out Blues
TTITLE17=Tom Dickson - Death Bell Blues
TTITLE18=Tom Dickson - Worry Blues
TTITLE19=Tom Dickson - Happy Blues
TTITLE20=Tom Dickson - Labor Blues
TTITLE21=Allen Shaw - I Couldn't Help It
TTITLE22=Allen Shaw - Moanin' the Blues
EXTD=YEAR: 1990
EXTT0=
EXTT1=
EXTT2=
EXTT3=
EXTT4=
EXTT5=
EXTT6=
EXTT7=
EXTT8=
EXTT9=
EXTT10=
EXTT11=
EXTT12=
EXTT13=
EXTT14=
EXTT15=
EXTT16=
EXTT17=
EXTT18=
EXTT19=
EXTT20=
EXTT21=
EXTT22=
PLAYORDER=
